<?xml version="1.0" encoding="UTF-8"?>
<svg xmlns="http://www.w3.org/2000/svg" viewBox="0 0 512 512" width="512" height="512">
  <rect width="512" height="512" rx="102" fill="#0d1117"/>
  <rect x="25.6" y="25.6" width="460.8" height="460.8" rx="77" fill="#161b22"/>
  <!-- Trophy cup -->
  <rect x="179.2" y="317.44" width="153.6" height="40.96" rx="10.24" fill="#f39c12"/>
  <rect x="215.04" y="281.6" width="81.92" height="51.2" rx="5.12" fill="#f1c40f"/>
  <path d="M143.36 112.64 Q102.4 112.64 102.4 179.2 Q102.4 266.24 179.2 281.6 L332.8 281.6 Q409.6 266.24 409.6 179.2 Q409.6 112.64 368.64 112.64 Z" fill="#f39c12"/>
  <path d="M179.2 112.64 L332.8 112.64 L332.8 281.6 L179.2 281.6 Z" fill="#f1c40f"/>
  <!-- Star on top -->
  <polygon points="256,51.2 271.36,97.28 322.56,97.28 281.6,122.88 296.96,168.96 256,143.36 215.04,168.96 230.4,122.88 189.44,97.28 240.64,97.28" fill="#f39c12"/>
  <!-- Bottom bar -->
  <rect x="40.96" y="419.84" width="430.08" height="61.44" rx="15.36" fill="#f39c12" opacity="0.9"/>
  <text x="256" y="468.48" font-size="38.4" font-family="Arial,sans-serif" font-weight="bold" fill="#0d1117" text-anchor="middle">SalesBoard</text>
</svg>