<?xml version="1.0" encoding="UTF-8"?>
<svg xmlns="http://www.w3.org/2000/svg" viewBox="0 0 192 192" width="192" height="192">
  <rect width="192" height="192" rx="38" fill="#0d1117"/>
  <rect x="9.600000000000001" y="9.600000000000001" width="172.8" height="172.8" rx="29" fill="#161b22"/>
  <!-- Trophy cup -->
  <rect x="67.19999999999999" y="119.03999999999999" width="57.599999999999994" height="15.36" rx="3.84" fill="#f39c12"/>
  <rect x="80.64" y="105.60000000000001" width="30.72" height="19.200000000000003" rx="1.92" fill="#f1c40f"/>
  <path d="M53.760000000000005 42.24 Q38.400000000000006 42.24 38.400000000000006 67.19999999999999 Q38.400000000000006 99.84 67.19999999999999 105.60000000000001 L124.80000000000001 105.60000000000001 Q153.60000000000002 99.84 153.60000000000002 67.19999999999999 Q153.60000000000002 42.24 138.24 42.24 Z" fill="#f39c12"/>
  <path d="M67.19999999999999 42.24 L124.80000000000001 42.24 L124.80000000000001 105.60000000000001 L67.19999999999999 105.60000000000001 Z" fill="#f1c40f"/>
  <!-- Star on top -->
  <polygon points="96,19.200000000000003 101.76,36.480000000000004 120.96000000000001,36.480000000000004 105.60000000000001,46.08 111.35999999999999,63.36 96,53.760000000000005 80.64,63.36 86.4,46.08 71.03999999999999,36.480000000000004 90.24,36.480000000000004" fill="#f39c12"/>
  <!-- Bottom bar -->
  <rect x="15.36" y="157.44" width="161.28" height="23.04" rx="5.76" fill="#f39c12" opacity="0.9"/>
  <text x="96" y="175.68" font-size="14.399999999999999" font-family="Arial,sans-serif" font-weight="bold" fill="#0d1117" text-anchor="middle">SalesBoard</text>
</svg>